<svg xmlns="http://www.w3.org/2000/svg" xmlns:xlink="http://www.w3.org/1999/xlink" width="500" zoomAndPan="magnify" viewBox="0 0 375 374.999991" height="500" preserveAspectRatio="xMidYMid meet" version="1.0"><defs><clipPath id="f75f9fa9ca"><path d="M 26.1875 37 L 285 37 L 285 212 L 26.1875 212 Z M 26.1875 37 " clip-rule="nonzero"/></clipPath><clipPath id="91e777067b"><path d="M 180 12.035156 L 348.925781 12.035156 L 348.925781 212 L 180 212 Z M 180 12.035156 " clip-rule="nonzero"/></clipPath><clipPath id="1ccfeba25c"><path d="M 72 139 L 178 139 L 178 239.214844 L 72 239.214844 Z M 72 139 " clip-rule="nonzero"/></clipPath><clipPath id="05ae59d611"><path d="M 90 88.394531 L 303 88.394531 L 303 239.214844 L 90 239.214844 Z M 90 88.394531 " clip-rule="nonzero"/></clipPath><clipPath id="b984ddcdc1"><path d="M 138.878906 165 L 236.242188 165 L 236.242188 239.214844 L 138.878906 239.214844 Z M 138.878906 165 " clip-rule="nonzero"/></clipPath></defs><g clip-path="url(#f75f9fa9ca)"><path fill="#ff3131" d="M 170.839844 57.988281 L 180.847656 73.253906 L 187.554688 83.511719 L 271.261719 211.300781 L 284.75 211.300781 L 192.265625 70.21875 L 187.554688 63.023438 L 177.554688 47.757812 L 170.839844 37.53125 L 72.03125 188.292969 L 40.601562 86.285156 L 26.210938 77.671875 L 64.839844 202.976562 L 67.382812 211.300781 L 70.355469 211.300781 L 74.871094 204.394531 Z M 170.839844 57.988281 " fill-opacity="1" fill-rule="evenodd"/></g><path fill="#ff3131" d="M 313.019531 99.160156 L 298.628906 107.777344 L 289.621094 137.144531 L 297.621094 149.339844 Z M 313.019531 99.160156 " fill-opacity="1" fill-rule="evenodd"/><path fill="#ff3131" d="M 85.488281 137.144531 L 76.453125 107.777344 L 62.09375 99.160156 L 77.488281 149.339844 Z M 85.488281 137.144531 " fill-opacity="1" fill-rule="evenodd"/><g clip-path="url(#91e777067b)"><path fill="#ff3131" d="M 334.507812 86.285156 L 303.078125 188.292969 L 192.265625 19.199219 L 187.554688 12.035156 L 182.847656 19.199219 L 180.488281 22.816406 L 187.554688 32.496094 L 300.238281 204.394531 L 304.753906 211.300781 L 307.726562 211.300781 L 310.277344 202.976562 L 348.898438 77.671875 Z M 334.507812 86.285156 " fill-opacity="1" fill-rule="evenodd"/></g><g clip-path="url(#1ccfeba25c)"><path fill="#ff3131" d="M 170.839844 139.53125 L 123.824219 211.265625 L 123.792969 211.300781 L 112.820312 228.015625 L 72.484375 228.046875 L 75.9375 239.242188 L 118.886719 239.242188 L 137.21875 211.300781 L 177.554688 149.761719 Z M 170.839844 139.53125 " fill-opacity="1" fill-rule="evenodd"/></g><g clip-path="url(#05ae59d611)"><path fill="#ff3131" d="M 251.316406 211.300781 C 226.699219 173.769531 202.140625 136.273438 177.554688 98.742188 L 174.390625 93.902344 L 170.839844 88.484375 L 90.328125 211.300781 L 103.851562 211.300781 L 170.871094 109.007812 C 192.976562 142.722656 215.5 177.09375 237.894531 211.265625 L 256.222656 239.214844 L 299.171875 239.214844 L 302.628906 227.980469 L 262.289062 227.980469 Z M 251.316406 211.300781 " fill-opacity="1" fill-rule="evenodd"/></g><g clip-path="url(#b984ddcdc1)"><path fill="#ff3131" d="M 138.925781 239.242188 L 236.183594 239.242188 L 187.554688 165.054688 Z M 187.554688 228.015625 L 159.707031 228.015625 L 187.554688 185.515625 L 215.4375 228.015625 Z M 187.554688 228.015625 " fill-opacity="1" fill-rule="evenodd"/></g><path fill="#000000" d="M 65.808594 260.015625 C 76.523438 260.015625 85.191406 263.222656 91.800781 269.632812 L 82.597656 280.449219 C 77.875 276.667969 72.851562 274.777344 67.519531 274.777344 C 65.023438 274.777344 63.140625 275.21875 61.863281 276.089844 C 60.585938 276.96875 59.949219 278.214844 59.949219 279.828125 C 59.949219 281.046875 60.296875 282.039062 61 282.816406 C 61.714844 283.59375 62.886719 284.316406 64.53125 284.992188 C 66.183594 285.671875 68.871094 286.617188 72.589844 287.828125 C 79.996094 290.1875 85.339844 293.15625 88.609375 296.730469 C 91.875 300.300781 93.511719 305.183594 93.511719 311.382812 C 93.511719 315.902344 92.3125 319.898438 89.921875 323.363281 C 87.527344 326.832031 84.105469 329.550781 79.648438 331.515625 C 75.203125 333.46875 69.949219 334.445312 63.894531 334.445312 C 57.679688 334.445312 52.214844 333.46875 47.496094 331.515625 C 42.773438 329.550781 38.800781 326.984375 35.570312 323.816406 L 45.789062 312.601562 C 51.109375 317.183594 56.867188 319.476562 63.066406 319.476562 C 65.96875 319.476562 68.160156 318.890625 69.640625 317.710938 C 71.128906 316.523438 71.875 314.988281 71.875 313.109375 C 71.875 311.695312 71.554688 310.519531 70.917969 309.578125 C 70.277344 308.628906 69.140625 307.753906 67.519531 306.949219 C 65.902344 306.136719 63.539062 305.253906 60.4375 304.300781 C 52.285156 301.746094 46.585938 298.667969 43.347656 295.0625 C 40.117188 291.453125 38.5 286.957031 38.5 281.558594 C 38.5 277.175781 39.675781 273.367188 42.03125 270.136719 C 44.398438 266.898438 47.652344 264.398438 51.796875 262.644531 C 55.9375 260.894531 60.609375 260.015625 65.808594 260.015625 Z M 65.808594 260.015625 " fill-opacity="1" fill-rule="nonzero"/><path fill="#000000" d="M 130.613281 260.015625 C 139.3125 260.015625 146.863281 262.785156 153.261719 268.316406 L 143.667969 279.640625 C 141.636719 278.152344 139.65625 277.007812 137.730469 276.203125 C 135.816406 275.390625 133.777344 274.984375 131.628906 274.984375 C 127.519531 274.984375 124.332031 276.839844 122.066406 280.542969 C 119.8125 284.253906 118.6875 289.746094 118.6875 297.03125 C 118.6875 304.308594 119.832031 309.746094 122.125 313.355469 C 124.414062 316.960938 127.683594 318.761719 131.929688 318.761719 C 134.21875 318.761719 136.359375 318.292969 138.351562 317.355469 C 140.34375 316.40625 142.546875 314.988281 144.980469 313.109375 L 154.070312 324.621094 C 151.238281 327.46875 147.816406 329.816406 143.796875 331.664062 C 139.789062 333.515625 135.496094 334.445312 130.914062 334.445312 C 123.972656 334.445312 117.976562 333.007812 112.921875 330.144531 C 107.859375 327.28125 103.949219 323.042969 101.183594 317.449219 C 98.425781 311.851562 97.050781 305.046875 97.050781 297.03125 C 97.050781 289.347656 98.464844 282.722656 101.296875 277.164062 C 104.121094 271.59375 108.066406 267.339844 113.128906 264.410156 C 118.183594 261.480469 124.011719 260.015625 130.613281 260.015625 Z M 130.613281 260.015625 " fill-opacity="1" fill-rule="nonzero"/><path fill="#000000" d="M 188.949219 260.015625 C 199.464844 260.015625 207.570312 263.273438 213.269531 269.78125 C 218.964844 276.28125 221.816406 285.398438 221.816406 297.125 C 221.816406 304.742188 220.53125 311.34375 217.964844 316.941406 C 215.410156 322.539062 211.675781 326.855469 206.753906 329.898438 C 201.832031 332.929688 195.898438 334.445312 188.949219 334.445312 C 178.441406 334.445312 170.339844 331.160156 164.644531 324.585938 C 158.945312 318.011719 156.101562 308.859375 156.101562 297.125 C 156.101562 289.515625 157.378906 282.929688 159.933594 277.367188 C 162.496094 271.800781 166.242188 267.519531 171.164062 264.523438 C 176.082031 261.515625 182.007812 260.015625 188.949219 260.015625 Z M 188.949219 274.777344 C 184.976562 274.777344 182.117188 276.480469 180.367188 279.886719 C 178.609375 283.292969 177.738281 289.042969 177.738281 297.125 C 177.738281 305.214844 178.609375 311 180.367188 314.480469 C 182.117188 317.949219 184.976562 319.683594 188.949219 319.683594 C 193.003906 319.683594 195.890625 317.964844 197.605469 314.519531 C 199.320312 311.078125 200.179688 305.277344 200.179688 297.125 C 200.179688 289.042969 199.300781 283.292969 197.550781 279.886719 C 195.792969 276.480469 192.929688 274.777344 188.949219 274.777344 Z M 188.949219 274.777344 " fill-opacity="1" fill-rule="nonzero"/><path fill="#000000" d="M 252.855469 307.34375 L 249.023438 307.34375 L 249.023438 332.417969 L 228.195312 332.417969 L 228.195312 262.042969 L 253.960938 262.042969 C 264.140625 262.042969 271.71875 263.847656 276.707031 267.453125 C 281.703125 271.058594 284.199219 276.707031 284.199219 284.394531 C 284.199219 288.777344 283.222656 292.421875 281.269531 295.324219 C 279.316406 298.214844 276.148438 300.9375 271.765625 303.492188 L 288.953125 332.417969 L 265.90625 332.417969 Z M 249.023438 293.390625 L 254.46875 293.390625 C 257.296875 293.390625 259.417969 292.652344 260.835938 291.171875 C 262.265625 289.683594 262.976562 287.425781 262.976562 284.394531 C 262.976562 279 259.808594 276.296875 253.472656 276.296875 L 249.023438 276.296875 Z M 249.023438 293.390625 " fill-opacity="1" fill-rule="nonzero"/><path fill="#000000" d="M 337.488281 262.042969 L 335.367188 276.503906 L 312.113281 276.503906 L 312.113281 289.652344 L 332.53125 289.652344 L 332.53125 303.699219 L 312.113281 303.699219 L 312.113281 317.859375 L 336.980469 317.859375 L 336.980469 332.417969 L 291.285156 332.417969 L 291.285156 262.042969 Z M 337.488281 262.042969 " fill-opacity="1" fill-rule="nonzero"/><path fill="#000000" d="M 138.839844 357.25 C 140.214844 357.25 141.382812 356.773438 142.351562 355.804688 C 143.328125 354.828125 143.816406 353.65625 143.816406 352.273438 L 143.816406 346.566406 C 143.816406 345.1875 143.328125 344.019531 142.351562 343.050781 C 141.382812 342.074219 140.214844 341.585938 138.839844 341.585938 L 130.125 341.585938 C 128.757812 341.585938 127.589844 342.074219 126.613281 343.050781 C 125.636719 344.019531 125.148438 345.1875 125.148438 346.566406 L 125.148438 352.273438 C 125.148438 353.65625 125.636719 354.828125 126.613281 355.804688 C 127.589844 356.773438 128.757812 357.25 130.125 357.25 Z M 138.839844 354.753906 L 130.125 354.753906 C 129.433594 354.753906 128.847656 354.519531 128.359375 354.039062 C 127.878906 353.550781 127.644531 352.964844 127.644531 352.273438 L 127.644531 346.566406 C 127.644531 345.878906 127.878906 345.289062 128.359375 344.800781 C 128.847656 344.3125 129.433594 344.066406 130.125 344.066406 L 138.839844 344.066406 C 139.523438 344.066406 140.105469 344.3125 140.585938 344.800781 C 141.074219 345.289062 141.316406 345.878906 141.316406 346.566406 L 141.316406 352.273438 C 141.316406 352.964844 141.074219 353.550781 140.585938 354.039062 C 140.105469 354.519531 139.523438 354.753906 138.839844 354.753906 Z M 138.839844 354.753906 " fill-opacity="1" fill-rule="nonzero"/><path fill="#000000" d="M 166.296875 357.25 L 163.820312 357.25 L 163.820312 352.835938 C 163.820312 352.5 163.691406 352.214844 163.445312 351.972656 C 163.203125 351.726562 162.910156 351.597656 162.5625 351.597656 L 150.128906 351.597656 L 150.128906 357.25 L 147.628906 357.25 L 147.628906 341.585938 L 162.5625 341.585938 C 163.585938 341.585938 164.460938 341.953125 165.191406 342.675781 C 165.929688 343.40625 166.296875 344.28125 166.296875 345.304688 L 166.296875 347.859375 C 166.296875 348.828125 165.980469 349.652344 165.339844 350.339844 C 165.980469 351.054688 166.296875 351.890625 166.296875 352.835938 Z M 162.5625 349.101562 C 162.910156 349.101562 163.203125 348.984375 163.445312 348.742188 C 163.691406 348.496094 163.820312 348.199219 163.820312 347.859375 L 163.820312 345.304688 C 163.820312 344.96875 163.691406 344.683594 163.445312 344.441406 C 163.203125 344.195312 162.910156 344.066406 162.5625 344.066406 L 150.128906 344.066406 L 150.128906 349.101562 Z M 162.5625 349.101562 " fill-opacity="1" fill-rule="nonzero"/><path fill="#000000" d="M 190.773438 357.25 L 187.769531 357.25 L 185.460938 353.851562 L 173.570312 353.851562 L 171.261719 357.25 L 168.257812 357.25 L 178.867188 341.585938 L 180.183594 341.585938 Z M 183.789062 351.371094 L 179.507812 345.042969 L 175.242188 351.371094 Z M 183.789062 351.371094 " fill-opacity="1" fill-rule="nonzero"/><path fill="#000000" d="M 206.425781 357.25 C 207.800781 357.25 208.96875 356.773438 209.9375 355.804688 C 210.914062 354.828125 211.402344 353.65625 211.402344 352.273438 L 208.90625 352.273438 C 208.90625 352.964844 208.660156 353.550781 208.171875 354.039062 C 207.691406 354.519531 207.109375 354.753906 206.425781 354.753906 L 197.710938 354.753906 C 197.019531 354.753906 196.433594 354.519531 195.945312 354.039062 C 195.464844 353.550781 195.230469 352.964844 195.230469 352.273438 L 195.230469 346.566406 C 195.230469 345.878906 195.464844 345.289062 195.945312 344.800781 C 196.433594 344.3125 197.019531 344.066406 197.710938 344.066406 L 206.425781 344.066406 C 207.109375 344.066406 207.691406 344.3125 208.171875 344.800781 C 208.660156 345.289062 208.90625 345.878906 208.90625 346.566406 L 211.402344 346.566406 C 211.402344 345.1875 210.914062 344.019531 209.9375 343.050781 C 208.96875 342.074219 207.800781 341.585938 206.425781 341.585938 L 197.710938 341.585938 C 196.34375 341.585938 195.175781 342.074219 194.199219 343.050781 C 193.222656 344.019531 192.734375 345.1875 192.734375 346.566406 L 192.734375 352.273438 C 192.734375 353.65625 193.222656 354.828125 194.199219 355.804688 C 195.175781 356.773438 196.34375 357.25 197.710938 357.25 Z M 206.425781 357.25 " fill-opacity="1" fill-rule="nonzero"/><path fill="#000000" d="M 229.566406 357.25 L 229.566406 354.753906 L 217.714844 354.753906 L 217.714844 341.585938 L 215.21875 341.585938 L 215.21875 357.25 Z M 229.566406 357.25 " fill-opacity="1" fill-rule="nonzero"/><path fill="#000000" d="M 249.933594 357.25 L 232.503906 357.25 L 232.503906 341.585938 L 249.933594 341.585938 L 249.933594 344.066406 L 235.003906 344.066406 L 235.003906 348.179688 L 248.167969 348.179688 L 248.167969 350.660156 L 235.003906 350.660156 L 235.003906 354.753906 L 249.933594 354.753906 Z M 249.933594 357.25 " fill-opacity="1" fill-rule="nonzero"/></svg>