<svg xmlns="http://www.w3.org/2000/svg" xmlns:xlink="http://www.w3.org/1999/xlink" width="500" zoomAndPan="magnify" viewBox="0 0 375 374.999991" height="500" preserveAspectRatio="xMidYMid meet" version="1.0"><defs><clipPath id="239dbef1b8"><path d="M 112.5 117 L 233 117 L 233 199 L 112.5 199 Z M 112.5 117 " clip-rule="nonzero"/></clipPath><clipPath id="c452023b9e"><path d="M 184 105.949219 L 262.5 105.949219 L 262.5 199 L 184 199 Z M 184 105.949219 " clip-rule="nonzero"/></clipPath><clipPath id="3762c4f427"><path d="M 134 165 L 183 165 L 183 211.699219 L 134 211.699219 Z M 134 165 " clip-rule="nonzero"/></clipPath><clipPath id="43506f26d4"><path d="M 142 141 L 241 141 L 241 211.699219 L 142 211.699219 Z M 142 141 " clip-rule="nonzero"/></clipPath><clipPath id="cdbbf5378c"><path d="M 164 177 L 211 177 L 211 211.699219 L 164 211.699219 Z M 164 177 " clip-rule="nonzero"/></clipPath></defs><g clip-path="url(#239dbef1b8)"><path fill="#ff3131" d="M 179.730469 127.308594 L 184.378906 134.402344 L 187.5 139.171875 L 226.402344 198.558594 L 232.671875 198.558594 L 189.691406 132.992188 L 187.5 129.648438 L 182.851562 122.550781 L 179.730469 117.796875 L 133.808594 187.867188 L 119.203125 140.460938 L 112.511719 136.457031 L 130.464844 194.691406 L 131.648438 198.558594 L 133.027344 198.558594 L 135.128906 195.351562 Z M 179.730469 127.308594 " fill-opacity="1" fill-rule="evenodd"/></g><path fill="#ff3131" d="M 245.808594 146.445312 L 239.121094 150.449219 L 234.9375 164.097656 L 238.65625 169.765625 Z M 245.808594 146.445312 " fill-opacity="1" fill-rule="evenodd"/><path fill="#ff3131" d="M 140.0625 164.097656 L 135.863281 150.449219 L 129.191406 146.445312 L 136.34375 169.765625 Z M 140.0625 164.097656 " fill-opacity="1" fill-rule="evenodd"/><g clip-path="url(#c452023b9e)"><path fill="#ff3131" d="M 255.796875 140.460938 L 241.191406 187.867188 L 189.691406 109.28125 L 187.5 105.949219 L 185.308594 109.28125 L 184.214844 110.960938 L 187.5 115.457031 L 239.871094 195.351562 L 241.972656 198.558594 L 243.351562 198.558594 L 244.535156 194.691406 L 262.488281 136.457031 Z M 255.796875 140.460938 " fill-opacity="1" fill-rule="evenodd"/></g><g clip-path="url(#3762c4f427)"><path fill="#ff3131" d="M 179.730469 165.207031 L 157.878906 198.546875 L 157.863281 198.558594 L 152.765625 206.328125 L 134.019531 206.34375 L 135.625 211.546875 L 155.585938 211.546875 L 164.105469 198.558594 L 182.851562 169.960938 Z M 179.730469 165.207031 " fill-opacity="1" fill-rule="evenodd"/></g><g clip-path="url(#43506f26d4)"><path fill="#ff3131" d="M 217.136719 198.558594 C 205.691406 181.117188 194.277344 163.691406 182.851562 146.25 L 181.382812 144 L 179.730469 141.480469 L 142.3125 198.558594 L 148.597656 198.558594 L 179.746094 151.019531 C 190.019531 166.691406 200.488281 182.664062 210.894531 198.546875 L 219.414062 211.53125 L 239.375 211.53125 L 240.980469 206.3125 L 222.234375 206.3125 Z M 217.136719 198.558594 " fill-opacity="1" fill-rule="evenodd"/></g><g clip-path="url(#cdbbf5378c)"><path fill="#ff3131" d="M 164.898438 211.546875 L 210.101562 211.546875 L 187.5 177.070312 Z M 187.5 206.328125 L 174.558594 206.328125 L 187.5 186.578125 L 200.457031 206.328125 Z M 187.5 206.328125 " fill-opacity="1" fill-rule="evenodd"/></g></svg>