<svg xmlns="http://www.w3.org/2000/svg" xmlns:xlink="http://www.w3.org/1999/xlink" width="500" zoomAndPan="magnify" viewBox="0 0 375 374.999991" height="500" preserveAspectRatio="xMidYMid meet" version="1.0"><defs><g/><clipPath id="9b404e884b"><path d="M 53.246094 104 L 269 104 L 269 249 L 53.246094 249 Z M 53.246094 104 " clip-rule="nonzero"/></clipPath><clipPath id="8d28f4a490"><path d="M 181 82.949219 L 321.746094 82.949219 L 321.746094 249 L 181 249 Z M 181 82.949219 " clip-rule="nonzero"/></clipPath><clipPath id="b021dc0b1c"><path d="M 91 189 L 180 189 L 180 271.949219 L 91 271.949219 Z M 91 189 " clip-rule="nonzero"/></clipPath><clipPath id="7e70a005b5"><path d="M 106 146 L 284 146 L 284 271.949219 L 106 271.949219 Z M 106 146 " clip-rule="nonzero"/></clipPath><clipPath id="27e83bbe91"><path d="M 147 210 L 228 210 L 228 271.949219 L 147 271.949219 Z M 147 210 " clip-rule="nonzero"/></clipPath></defs><g clip-path="url(#9b404e884b)"><path fill="#ff3131" d="M 173.589844 121.175781 L 181.914062 133.875 L 187.496094 142.414062 L 257.136719 248.722656 L 268.355469 248.722656 L 191.414062 131.351562 L 187.496094 125.367188 L 179.175781 112.667969 L 173.589844 104.15625 L 91.386719 229.582031 L 65.238281 144.722656 L 53.265625 137.554688 L 85.402344 241.796875 L 87.519531 248.722656 L 89.992188 248.722656 L 93.75 242.976562 Z M 173.589844 121.175781 " fill-opacity="1" fill-rule="evenodd"/></g><path fill="#ff3131" d="M 291.875 155.433594 L 279.902344 162.601562 L 272.410156 187.03125 L 279.066406 197.179688 Z M 291.875 155.433594 " fill-opacity="1" fill-rule="evenodd"/><path fill="#ff3131" d="M 102.582031 187.03125 L 95.066406 162.601562 L 83.117188 155.433594 L 95.925781 197.179688 Z M 102.582031 187.03125 " fill-opacity="1" fill-rule="evenodd"/><g clip-path="url(#8d28f4a490)"><path fill="#ff3131" d="M 309.753906 144.722656 L 283.605469 229.582031 L 191.414062 88.910156 L 187.496094 82.949219 L 183.578125 88.910156 L 181.617188 91.914062 L 187.496094 99.96875 L 281.242188 242.976562 L 285 248.722656 L 287.472656 248.722656 L 289.59375 241.796875 L 321.726562 137.554688 Z M 309.753906 144.722656 " fill-opacity="1" fill-rule="evenodd"/></g><g clip-path="url(#b021dc0b1c)"><path fill="#ff3131" d="M 173.589844 189.015625 L 134.476562 248.695312 L 134.449219 248.722656 L 125.320312 262.628906 L 91.761719 262.65625 L 94.636719 271.972656 L 130.367188 271.972656 L 145.617188 248.722656 L 179.175781 197.527344 Z M 173.589844 189.015625 " fill-opacity="1" fill-rule="evenodd"/></g><g clip-path="url(#7e70a005b5)"><path fill="#ff3131" d="M 240.542969 248.722656 C 220.0625 217.5 199.628906 186.304688 179.175781 155.085938 L 176.542969 151.058594 L 173.589844 146.546875 L 106.609375 248.722656 L 117.859375 248.722656 L 173.617188 163.621094 C 192.007812 191.675781 210.746094 220.265625 229.375 248.695312 L 244.625 271.945312 L 280.355469 271.945312 L 283.230469 262.601562 L 249.671875 262.601562 Z M 240.542969 248.722656 " fill-opacity="1" fill-rule="evenodd"/></g><g clip-path="url(#27e83bbe91)"><path fill="#ff3131" d="M 147.039062 271.972656 L 227.953125 271.972656 L 187.496094 210.253906 Z M 187.496094 262.628906 L 164.328125 262.628906 L 187.496094 227.273438 L 210.691406 262.628906 Z M 187.496094 262.628906 " fill-opacity="1" fill-rule="evenodd"/></g><g fill="#ffffff" fill-opacity="1"><g transform="translate(61.052951, 349.487058)"><g><path d="M 25.15625 -60.234375 C 34.070312 -60.234375 41.28125 -57.566406 46.78125 -52.234375 L 39.125 -43.234375 C 35.195312 -46.378906 31.015625 -47.953125 26.578125 -47.953125 C 24.503906 -47.953125 22.9375 -47.585938 21.875 -46.859375 C 20.8125 -46.128906 20.28125 -45.09375 20.28125 -43.75 C 20.28125 -42.738281 20.570312 -41.910156 21.15625 -41.265625 C 21.75 -40.617188 22.726562 -40.015625 24.09375 -39.453125 C 25.46875 -38.890625 27.703125 -38.101562 30.796875 -37.09375 C 36.960938 -35.132812 41.40625 -32.664062 44.125 -29.6875 C 46.84375 -26.71875 48.203125 -22.65625 48.203125 -17.5 C 48.203125 -13.738281 47.207031 -10.414062 45.21875 -7.53125 C 43.226562 -4.644531 40.378906 -2.382812 36.671875 -0.75 C 32.972656 0.875 28.601562 1.6875 23.5625 1.6875 C 18.394531 1.6875 13.847656 0.875 9.921875 -0.75 C 5.992188 -2.382812 2.6875 -4.519531 0 -7.15625 L 8.5 -16.484375 C 12.925781 -12.671875 17.71875 -10.765625 22.875 -10.765625 C 25.289062 -10.765625 27.113281 -11.253906 28.34375 -12.234375 C 29.582031 -13.222656 30.203125 -14.5 30.203125 -16.0625 C 30.203125 -17.238281 29.9375 -18.21875 29.40625 -19 C 28.875 -19.789062 27.929688 -20.519531 26.578125 -21.1875 C 25.234375 -21.863281 23.269531 -22.597656 20.6875 -23.390625 C 13.90625 -25.515625 9.164062 -28.078125 6.46875 -31.078125 C 3.78125 -34.078125 2.4375 -37.820312 2.4375 -42.3125 C 2.4375 -45.957031 3.414062 -49.125 5.375 -51.8125 C 7.34375 -54.507812 10.050781 -56.585938 13.5 -58.046875 C 16.945312 -59.503906 20.832031 -60.234375 25.15625 -60.234375 Z M 25.15625 -60.234375 "/></g></g></g><g fill="#ffffff" fill-opacity="1"><g transform="translate(110.514483, 349.487058)"><g><path d="M 29.609375 -60.234375 C 36.847656 -60.234375 43.128906 -57.929688 48.453125 -53.328125 L 40.46875 -43.90625 C 38.78125 -45.144531 37.132812 -46.097656 35.53125 -46.765625 C 33.9375 -47.441406 32.242188 -47.78125 30.453125 -47.78125 C 27.035156 -47.78125 24.382812 -46.238281 22.5 -43.15625 C 20.625 -40.070312 19.6875 -35.5 19.6875 -29.4375 C 19.6875 -23.382812 20.640625 -18.859375 22.546875 -15.859375 C 24.453125 -12.859375 27.171875 -11.359375 30.703125 -11.359375 C 32.609375 -11.359375 34.390625 -11.75 36.046875 -12.53125 C 37.703125 -13.320312 39.539062 -14.5 41.5625 -16.0625 L 49.125 -6.484375 C 46.769531 -4.117188 43.921875 -2.164062 40.578125 -0.625 C 37.242188 0.914062 33.671875 1.6875 29.859375 1.6875 C 24.085938 1.6875 19.097656 0.492188 14.890625 -1.890625 C 10.679688 -4.273438 7.425781 -7.796875 5.125 -12.453125 C 2.832031 -17.109375 1.6875 -22.769531 1.6875 -29.4375 C 1.6875 -35.832031 2.863281 -41.34375 5.21875 -45.96875 C 7.570312 -50.601562 10.851562 -54.140625 15.0625 -56.578125 C 19.269531 -59.015625 24.117188 -60.234375 29.609375 -60.234375 Z M 29.609375 -60.234375 "/></g></g></g><g fill="#ffffff" fill-opacity="1"><g transform="translate(159.639542, 349.487058)"><g><path d="M 29.015625 -60.234375 C 37.765625 -60.234375 44.507812 -57.523438 49.25 -52.109375 C 53.988281 -46.703125 56.359375 -39.117188 56.359375 -29.359375 C 56.359375 -23.023438 55.289062 -17.53125 53.15625 -12.875 C 51.03125 -8.21875 47.921875 -4.625 43.828125 -2.09375 C 39.734375 0.425781 34.796875 1.6875 29.015625 1.6875 C 20.273438 1.6875 13.535156 -1.046875 8.796875 -6.515625 C 4.054688 -11.984375 1.6875 -19.597656 1.6875 -29.359375 C 1.6875 -35.691406 2.75 -41.171875 4.875 -45.796875 C 7.007812 -50.429688 10.125 -53.992188 14.21875 -56.484375 C 18.3125 -58.984375 23.242188 -60.234375 29.015625 -60.234375 Z M 29.015625 -47.953125 C 25.710938 -47.953125 23.332031 -46.535156 21.875 -43.703125 C 20.414062 -40.867188 19.6875 -36.085938 19.6875 -29.359375 C 19.6875 -22.628906 20.414062 -17.816406 21.875 -14.921875 C 23.332031 -12.035156 25.710938 -10.59375 29.015625 -10.59375 C 32.390625 -10.59375 34.789062 -12.023438 36.21875 -14.890625 C 37.644531 -17.753906 38.359375 -22.578125 38.359375 -29.359375 C 38.359375 -36.085938 37.628906 -40.867188 36.171875 -43.703125 C 34.710938 -46.535156 32.328125 -47.953125 29.015625 -47.953125 Z M 29.015625 -47.953125 "/></g></g></g><g fill="#ffffff" fill-opacity="1"><g transform="translate(217.681139, 349.487058)"><g><path d="M 24.140625 -20.859375 L 20.953125 -20.859375 L 20.953125 0 L 3.625 0 L 3.625 -58.546875 L 25.0625 -58.546875 C 33.53125 -58.546875 39.835938 -57.046875 43.984375 -54.046875 C 48.140625 -51.046875 50.21875 -46.347656 50.21875 -39.953125 C 50.21875 -36.304688 49.40625 -33.273438 47.78125 -30.859375 C 46.15625 -28.453125 43.519531 -26.1875 39.875 -24.0625 L 54.171875 0 L 35 0 Z M 20.953125 -32.46875 L 25.484375 -32.46875 C 27.835938 -32.46875 29.601562 -33.082031 30.78125 -34.3125 C 31.96875 -35.550781 32.5625 -37.429688 32.5625 -39.953125 C 32.5625 -44.441406 29.925781 -46.6875 24.65625 -46.6875 L 20.953125 -46.6875 Z M 20.953125 -32.46875 "/></g></g></g><g fill="#ffffff" fill-opacity="1"><g transform="translate(270.17092, 349.487058)"><g><path d="M 42.0625 -58.546875 L 40.296875 -46.515625 L 20.953125 -46.515625 L 20.953125 -35.578125 L 37.9375 -35.578125 L 37.9375 -23.890625 L 20.953125 -23.890625 L 20.953125 -12.109375 L 41.640625 -12.109375 L 41.640625 0 L 3.625 0 L 3.625 -58.546875 Z M 42.0625 -58.546875 "/></g></g></g><g fill="#ffffff" fill-opacity="1"><g transform="translate(134.215827, 370.148704)"><g><path d="M 12.75 0 C 13.894531 0 14.867188 -0.398438 15.671875 -1.203125 C 16.484375 -2.015625 16.890625 -2.992188 16.890625 -4.140625 L 16.890625 -8.890625 C 16.890625 -10.035156 16.484375 -11.007812 15.671875 -11.8125 C 14.867188 -12.625 13.894531 -13.03125 12.75 -13.03125 L 5.5 -13.03125 C 4.363281 -13.03125 3.390625 -12.625 2.578125 -11.8125 C 1.765625 -11.007812 1.359375 -10.035156 1.359375 -8.890625 L 1.359375 -4.140625 C 1.359375 -2.992188 1.765625 -2.015625 2.578125 -1.203125 C 3.390625 -0.398438 4.363281 0 5.5 0 Z M 12.75 -2.078125 L 5.5 -2.078125 C 4.925781 -2.078125 4.4375 -2.273438 4.03125 -2.671875 C 3.632812 -3.078125 3.4375 -3.566406 3.4375 -4.140625 L 3.4375 -8.890625 C 3.4375 -9.460938 3.632812 -9.953125 4.03125 -10.359375 C 4.4375 -10.765625 4.925781 -10.96875 5.5 -10.96875 L 12.75 -10.96875 C 13.320312 -10.96875 13.804688 -10.765625 14.203125 -10.359375 C 14.609375 -9.953125 14.8125 -9.460938 14.8125 -8.890625 L 14.8125 -4.140625 C 14.8125 -3.566406 14.609375 -3.078125 14.203125 -2.671875 C 13.804688 -2.273438 13.320312 -2.078125 12.75 -2.078125 Z M 12.75 -2.078125 "/></g></g></g><g fill="#ffffff" fill-opacity="1"><g transform="translate(152.46824, 370.148704)"><g><path d="M 17.34375 0 L 15.28125 0 L 15.28125 -3.671875 C 15.28125 -3.953125 15.175781 -4.191406 14.96875 -4.390625 C 14.769531 -4.597656 14.523438 -4.703125 14.234375 -4.703125 L 3.890625 -4.703125 L 3.890625 0 L 1.8125 0 L 1.8125 -13.03125 L 14.234375 -13.03125 C 15.085938 -13.03125 15.816406 -12.726562 16.421875 -12.125 C 17.035156 -11.519531 17.34375 -10.789062 17.34375 -9.9375 L 17.34375 -7.8125 C 17.34375 -7.007812 17.078125 -6.320312 16.546875 -5.75 C 17.078125 -5.15625 17.34375 -4.460938 17.34375 -3.671875 Z M 14.234375 -6.78125 C 14.523438 -6.78125 14.769531 -6.878906 14.96875 -7.078125 C 15.175781 -7.285156 15.28125 -7.53125 15.28125 -7.8125 L 15.28125 -9.9375 C 15.28125 -10.21875 15.175781 -10.457031 14.96875 -10.65625 C 14.769531 -10.863281 14.523438 -10.96875 14.234375 -10.96875 L 3.890625 -10.96875 L 3.890625 -6.78125 Z M 14.234375 -6.78125 "/></g></g></g><g fill="#ffffff" fill-opacity="1"><g transform="translate(171.174919, 370.148704)"><g><path d="M 19 0 L 16.5 0 L 14.578125 -2.828125 L 4.6875 -2.828125 L 2.765625 0 L 0.265625 0 L 9.09375 -13.03125 L 10.1875 -13.03125 Z M 13.1875 -4.890625 L 9.625 -10.15625 L 6.078125 -4.890625 Z M 13.1875 -4.890625 "/></g></g></g><g fill="#ffffff" fill-opacity="1"><g transform="translate(190.444887, 370.148704)"><g><path d="M 12.75 0 C 13.894531 0 14.867188 -0.398438 15.671875 -1.203125 C 16.484375 -2.015625 16.890625 -2.992188 16.890625 -4.140625 L 14.8125 -4.140625 C 14.8125 -3.566406 14.609375 -3.078125 14.203125 -2.671875 C 13.804688 -2.273438 13.320312 -2.078125 12.75 -2.078125 L 5.5 -2.078125 C 4.925781 -2.078125 4.4375 -2.273438 4.03125 -2.671875 C 3.632812 -3.078125 3.4375 -3.566406 3.4375 -4.140625 L 3.4375 -8.890625 C 3.4375 -9.460938 3.632812 -9.953125 4.03125 -10.359375 C 4.4375 -10.765625 4.925781 -10.96875 5.5 -10.96875 L 12.75 -10.96875 C 13.320312 -10.96875 13.804688 -10.765625 14.203125 -10.359375 C 14.609375 -9.953125 14.8125 -9.460938 14.8125 -8.890625 L 16.890625 -8.890625 C 16.890625 -10.035156 16.484375 -11.007812 15.671875 -11.8125 C 14.867188 -12.625 13.894531 -13.03125 12.75 -13.03125 L 5.5 -13.03125 C 4.363281 -13.03125 3.390625 -12.625 2.578125 -11.8125 C 1.765625 -11.007812 1.359375 -10.035156 1.359375 -8.890625 L 1.359375 -4.140625 C 1.359375 -2.992188 1.765625 -2.015625 2.578125 -1.203125 C 3.390625 -0.398438 4.363281 0 5.5 0 Z M 12.75 0 "/></g></g></g><g fill="#ffffff" fill-opacity="1"><g transform="translate(208.6973, 370.148704)"><g><path d="M 13.75 0 L 13.75 -2.078125 L 3.890625 -2.078125 L 3.890625 -13.03125 L 1.8125 -13.03125 L 1.8125 0 Z M 13.75 0 "/></g></g></g><g fill="#ffffff" fill-opacity="1"><g transform="translate(223.079368, 370.148704)"><g><path d="M 16.3125 0 L 1.8125 0 L 1.8125 -13.03125 L 16.3125 -13.03125 L 16.3125 -10.96875 L 3.890625 -10.96875 L 3.890625 -7.546875 L 14.84375 -7.546875 L 14.84375 -5.484375 L 3.890625 -5.484375 L 3.890625 -2.078125 L 16.3125 -2.078125 Z M 16.3125 0 "/></g></g></g></svg>