<svg xmlns="http://www.w3.org/2000/svg" xmlns:xlink="http://www.w3.org/1999/xlink" width="500" zoomAndPan="magnify" viewBox="0 0 375 374.999991" height="500" preserveAspectRatio="xMidYMid meet" version="1.0"><defs><g/></defs><g fill="#000000" fill-opacity="1"><g transform="translate(116.86116, 254.850394)"><g><path d="M 14.046875 -33.65625 C 19.035156 -33.65625 23.0625 -32.164062 26.125 -29.1875 L 21.859375 -24.15625 C 19.660156 -25.914062 17.328125 -26.796875 14.859375 -26.796875 C 13.691406 -26.796875 12.8125 -26.585938 12.21875 -26.171875 C 11.625 -25.765625 11.328125 -25.1875 11.328125 -24.4375 C 11.328125 -23.875 11.488281 -23.410156 11.8125 -23.046875 C 12.144531 -22.691406 12.691406 -22.359375 13.453125 -22.046875 C 14.222656 -21.734375 15.472656 -21.296875 17.203125 -20.734375 C 20.648438 -19.628906 23.132812 -18.242188 24.65625 -16.578125 C 26.175781 -14.921875 26.9375 -12.65625 26.9375 -9.78125 C 26.9375 -7.675781 26.378906 -5.816406 25.265625 -4.203125 C 24.148438 -2.585938 22.554688 -1.328125 20.484375 -0.421875 C 18.421875 0.484375 15.976562 0.9375 13.15625 0.9375 C 10.28125 0.9375 7.742188 0.484375 5.546875 -0.421875 C 3.347656 -1.328125 1.5 -2.519531 0 -4 L 4.75 -9.21875 C 7.21875 -7.082031 9.894531 -6.015625 12.78125 -6.015625 C 14.132812 -6.015625 15.15625 -6.285156 15.84375 -6.828125 C 16.53125 -7.378906 16.875 -8.097656 16.875 -8.984375 C 16.875 -9.640625 16.722656 -10.1875 16.421875 -10.625 C 16.128906 -11.0625 15.601562 -11.46875 14.84375 -11.84375 C 14.09375 -12.21875 13 -12.625 11.5625 -13.0625 C 7.769531 -14.257812 5.117188 -15.691406 3.609375 -17.359375 C 2.109375 -19.035156 1.359375 -21.128906 1.359375 -23.640625 C 1.359375 -25.679688 1.90625 -27.453125 3 -28.953125 C 4.101562 -30.453125 5.617188 -31.609375 7.546875 -32.421875 C 9.472656 -33.242188 11.640625 -33.65625 14.046875 -33.65625 Z M 14.046875 -33.65625 "/></g></g></g><g fill="#000000" fill-opacity="1"><g transform="translate(144.492529, 254.850394)"><g><path d="M 16.546875 -33.65625 C 20.585938 -33.65625 24.097656 -32.367188 27.078125 -29.796875 L 22.609375 -24.53125 C 21.671875 -25.21875 20.753906 -25.75 19.859375 -26.125 C 18.960938 -26.507812 18.015625 -26.703125 17.015625 -26.703125 C 15.097656 -26.703125 13.613281 -25.835938 12.5625 -24.109375 C 11.519531 -22.390625 11 -19.835938 11 -16.453125 C 11 -13.066406 11.53125 -10.535156 12.59375 -8.859375 C 13.65625 -7.179688 15.175781 -6.34375 17.15625 -6.34375 C 18.21875 -6.34375 19.210938 -6.5625 20.140625 -7 C 21.066406 -7.4375 22.09375 -8.097656 23.21875 -8.984375 L 27.453125 -3.625 C 26.128906 -2.300781 24.535156 -1.207031 22.671875 -0.34375 C 20.804688 0.507812 18.8125 0.9375 16.6875 0.9375 C 13.457031 0.9375 10.664062 0.269531 8.3125 -1.0625 C 5.96875 -2.394531 4.148438 -4.359375 2.859375 -6.953125 C 1.578125 -9.554688 0.9375 -12.722656 0.9375 -16.453125 C 0.9375 -20.023438 1.59375 -23.101562 2.90625 -25.6875 C 4.226562 -28.269531 6.0625 -30.242188 8.40625 -31.609375 C 10.757812 -32.972656 13.472656 -33.65625 16.546875 -33.65625 Z M 16.546875 -33.65625 "/></g></g></g><g fill="#000000" fill-opacity="1"><g transform="translate(171.935928, 254.850394)"><g><path d="M 16.21875 -33.65625 C 21.101562 -33.65625 24.867188 -32.140625 27.515625 -29.109375 C 30.160156 -26.085938 31.484375 -21.851562 31.484375 -16.40625 C 31.484375 -12.863281 30.890625 -9.789062 29.703125 -7.1875 C 28.515625 -4.59375 26.773438 -2.585938 24.484375 -1.171875 C 22.203125 0.234375 19.445312 0.9375 16.21875 0.9375 C 11.332031 0.9375 7.5625 -0.585938 4.90625 -3.640625 C 2.257812 -6.691406 0.9375 -10.945312 0.9375 -16.40625 C 0.9375 -19.945312 1.53125 -23.007812 2.71875 -25.59375 C 3.914062 -28.175781 5.65625 -30.164062 7.9375 -31.5625 C 10.226562 -32.957031 12.988281 -33.65625 16.21875 -33.65625 Z M 16.21875 -26.796875 C 14.363281 -26.796875 13.03125 -26.003906 12.21875 -24.421875 C 11.40625 -22.835938 11 -20.164062 11 -16.40625 C 11 -12.644531 11.40625 -9.957031 12.21875 -8.34375 C 13.03125 -6.726562 14.363281 -5.921875 16.21875 -5.921875 C 18.09375 -5.921875 19.429688 -6.71875 20.234375 -8.3125 C 21.035156 -9.914062 21.4375 -12.613281 21.4375 -16.40625 C 21.4375 -20.164062 21.023438 -22.835938 20.203125 -24.421875 C 19.390625 -26.003906 18.0625 -26.796875 16.21875 -26.796875 Z M 16.21875 -26.796875 "/></g></g></g><g fill="#000000" fill-opacity="1"><g transform="translate(204.360495, 254.850394)"><g><path d="M 13.484375 -11.65625 L 11.703125 -11.65625 L 11.703125 0 L 2.015625 0 L 2.015625 -32.71875 L 14 -32.71875 C 18.738281 -32.71875 22.265625 -31.878906 24.578125 -30.203125 C 26.898438 -28.523438 28.0625 -25.898438 28.0625 -22.328125 C 28.0625 -20.285156 27.601562 -18.59375 26.6875 -17.25 C 25.78125 -15.90625 24.3125 -14.632812 22.28125 -13.4375 L 30.265625 0 L 19.546875 0 Z M 11.703125 -18.140625 L 14.234375 -18.140625 C 15.554688 -18.140625 16.546875 -18.484375 17.203125 -19.171875 C 17.859375 -19.859375 18.1875 -20.910156 18.1875 -22.328125 C 18.1875 -24.828125 16.710938 -26.078125 13.765625 -26.078125 L 11.703125 -26.078125 Z M 11.703125 -18.140625 "/></g></g></g><g fill="#000000" fill-opacity="1"><g transform="translate(233.683575, 254.850394)"><g><path d="M 23.5 -32.71875 L 22.515625 -25.984375 L 11.703125 -25.984375 L 11.703125 -19.875 L 21.203125 -19.875 L 21.203125 -13.34375 L 11.703125 -13.34375 L 11.703125 -6.765625 L 23.265625 -6.765625 L 23.265625 0 L 2.015625 0 L 2.015625 -32.71875 Z M 23.5 -32.71875 "/></g></g></g><g fill="#000000" fill-opacity="1"><g transform="translate(157.733131, 266.392951)"><g><path d="M 7.125 0 C 7.757812 0 8.300781 -0.222656 8.75 -0.671875 C 9.207031 -1.128906 9.4375 -1.675781 9.4375 -2.3125 L 9.4375 -4.96875 C 9.4375 -5.601562 9.207031 -6.144531 8.75 -6.59375 C 8.300781 -7.050781 7.757812 -7.28125 7.125 -7.28125 L 3.078125 -7.28125 C 2.429688 -7.28125 1.882812 -7.050781 1.4375 -6.59375 C 0.988281 -6.144531 0.765625 -5.601562 0.765625 -4.96875 L 0.765625 -2.3125 C 0.765625 -1.675781 0.988281 -1.128906 1.4375 -0.671875 C 1.882812 -0.222656 2.429688 0 3.078125 0 Z M 7.125 -1.15625 L 3.078125 -1.15625 C 2.753906 -1.15625 2.476562 -1.265625 2.25 -1.484375 C 2.03125 -1.710938 1.921875 -1.988281 1.921875 -2.3125 L 1.921875 -4.96875 C 1.921875 -5.28125 2.03125 -5.550781 2.25 -5.78125 C 2.476562 -6.007812 2.753906 -6.125 3.078125 -6.125 L 7.125 -6.125 C 7.4375 -6.125 7.707031 -6.007812 7.9375 -5.78125 C 8.164062 -5.550781 8.28125 -5.28125 8.28125 -4.96875 L 8.28125 -2.3125 C 8.28125 -1.988281 8.164062 -1.710938 7.9375 -1.484375 C 7.707031 -1.265625 7.4375 -1.15625 7.125 -1.15625 Z M 7.125 -1.15625 "/></g></g></g><g fill="#000000" fill-opacity="1"><g transform="translate(167.929725, 266.392951)"><g><path d="M 9.6875 0 L 8.53125 0 L 8.53125 -2.046875 C 8.53125 -2.203125 8.472656 -2.335938 8.359375 -2.453125 C 8.242188 -2.566406 8.109375 -2.625 7.953125 -2.625 L 2.171875 -2.625 L 2.171875 0 L 1.015625 0 L 1.015625 -7.28125 L 7.953125 -7.28125 C 8.429688 -7.28125 8.835938 -7.109375 9.171875 -6.765625 C 9.515625 -6.429688 9.6875 -6.023438 9.6875 -5.546875 L 9.6875 -4.359375 C 9.6875 -3.910156 9.535156 -3.523438 9.234375 -3.203125 C 9.535156 -2.878906 9.6875 -2.492188 9.6875 -2.046875 Z M 7.953125 -3.78125 C 8.109375 -3.78125 8.242188 -3.835938 8.359375 -3.953125 C 8.472656 -4.066406 8.53125 -4.203125 8.53125 -4.359375 L 8.53125 -5.546875 C 8.53125 -5.703125 8.472656 -5.835938 8.359375 -5.953125 C 8.242188 -6.066406 8.109375 -6.125 7.953125 -6.125 L 2.171875 -6.125 L 2.171875 -3.78125 Z M 7.953125 -3.78125 "/></g></g></g><g fill="#000000" fill-opacity="1"><g transform="translate(178.380091, 266.392951)"><g><path d="M 10.609375 0 L 9.203125 0 L 8.140625 -1.578125 L 2.625 -1.578125 L 1.546875 0 L 0.15625 0 L 5.078125 -7.28125 L 5.6875 -7.28125 Z M 7.359375 -2.734375 L 5.375 -5.671875 L 3.390625 -2.734375 Z M 7.359375 -2.734375 "/></g></g></g><g fill="#000000" fill-opacity="1"><g transform="translate(189.145136, 266.392951)"><g><path d="M 7.125 0 C 7.757812 0 8.300781 -0.222656 8.75 -0.671875 C 9.207031 -1.128906 9.4375 -1.675781 9.4375 -2.3125 L 8.28125 -2.3125 C 8.28125 -1.988281 8.164062 -1.710938 7.9375 -1.484375 C 7.707031 -1.265625 7.4375 -1.15625 7.125 -1.15625 L 3.078125 -1.15625 C 2.753906 -1.15625 2.476562 -1.265625 2.25 -1.484375 C 2.03125 -1.710938 1.921875 -1.988281 1.921875 -2.3125 L 1.921875 -4.96875 C 1.921875 -5.28125 2.03125 -5.550781 2.25 -5.78125 C 2.476562 -6.007812 2.753906 -6.125 3.078125 -6.125 L 7.125 -6.125 C 7.4375 -6.125 7.707031 -6.007812 7.9375 -5.78125 C 8.164062 -5.550781 8.28125 -5.28125 8.28125 -4.96875 L 9.4375 -4.96875 C 9.4375 -5.601562 9.207031 -6.144531 8.75 -6.59375 C 8.300781 -7.050781 7.757812 -7.28125 7.125 -7.28125 L 3.078125 -7.28125 C 2.429688 -7.28125 1.882812 -7.050781 1.4375 -6.59375 C 0.988281 -6.144531 0.765625 -5.601562 0.765625 -4.96875 L 0.765625 -2.3125 C 0.765625 -1.675781 0.988281 -1.128906 1.4375 -0.671875 C 1.882812 -0.222656 2.429688 0 3.078125 0 Z M 7.125 0 "/></g></g></g><g fill="#000000" fill-opacity="1"><g transform="translate(199.341729, 266.392951)"><g><path d="M 7.671875 0 L 7.671875 -1.15625 L 2.171875 -1.15625 L 2.171875 -7.28125 L 1.015625 -7.28125 L 1.015625 0 Z M 7.671875 0 "/></g></g></g><g fill="#000000" fill-opacity="1"><g transform="translate(207.376179, 266.392951)"><g><path d="M 9.109375 0 L 1.015625 0 L 1.015625 -7.28125 L 9.109375 -7.28125 L 9.109375 -6.125 L 2.171875 -6.125 L 2.171875 -4.21875 L 8.28125 -4.21875 L 8.28125 -3.0625 L 2.171875 -3.0625 L 2.171875 -1.15625 L 9.109375 -1.15625 Z M 9.109375 0 "/></g></g></g></svg>